# xmcd
#
# Track frame offsets:
# 150
# 10153
# 19089
# 30542
# 40671
# 53014
# 64621
# 73281
# 85381
# 97215
# 106310
# 116737
# 127778
# 137048
# 145464
# 155954
# 167191
# 175299
# 186179
# 195855
# 205897
# 212812
# 221097
# 229431
# 238483
# 247280
#
# Disc length: 3452 seconds
#
#
# Revision: 1
# Processed by: cddbd v1.5.2PL0 Copyright (c) Steve Scherf et al.
# Submitted via: FreeRIP 2.945 
#
DISCID=900d7a1a
DTITLE=Jimmy Donley - Born To Be A Loser
DYEAR=1999
DGENRE=Country
TTITLE0=Please Mr Sandman
TTITLE1=A Woman's Gonna Have Her Way
TTITLE2=Hello! Remember Me
TTITLE3=Honey Stop Twistin'
TTITLE4=Think It Over
TTITLE5=Forever Lillie Mae
TTITLE6=Loving Cajun Style
TTITLE7=Baby, Heaven Sent Me You
TTITLE8=Let Me Told You
TTITLE9=You're Why I'm So Lonely
TTITLE10=Santa! Don't Pass Me By
TTITLE11=I Really Got The Blues
TTITLE12=Just A Game
TTITLE13=I'm Lonesome Without The Blues
TTITLE14=Forget The Past
TTITLE15=I'm To Blame
TTITLE16=Love Bug
TTITLE17=My Forbidden Love
TTITLE18=Strange, Strange Feeling
TTITLE19=Rockin' Bicycle
TTITLE20=What A Price
TTITLE21=Domino Twist
TTITLE22=Stop The Clock
TTITLE23=Two Sides To The Story Of Love
TTITLE24=Oh How It Hurts
TTITLE25=Born To Be A Loser
EXTD=YEAR: 1999
EXTT0=
EXTT1=
EXTT2=
EXTT3=
EXTT4=
EXTT5=
EXTT6=
EXTT7=
EXTT8=
EXTT9=
EXTT10=
EXTT11=
EXTT12=
EXTT13=
EXTT14=
EXTT15=
EXTT16=
EXTT17=
EXTT18=
EXTT19=
EXTT20=
EXTT21=
EXTT22=
EXTT23=
EXTT24=
EXTT25=
PLAYORDER=
